<?xml version="1.0" encoding="UTF-8" standalone="no"?>
<!-- Created with Inkscape (http://www.inkscape.org/) -->

<svg
   xmlns:dc="http://purl.org/dc/elements/1.1/"
   xmlns:cc="http://creativecommons.org/ns#"
   xmlns:rdf="http://www.w3.org/1999/02/22-rdf-syntax-ns#"
   xmlns:svg="http://www.w3.org/2000/svg"
   xmlns="http://www.w3.org/2000/svg"
   xmlns:inkscape="http://www.inkscape.org/namespaces/inkscape"
   version="1.1"
   width="176.25"
   height="136.25"
   id="svg2"
   xml:space="preserve"><metadata
     id="metadata8"><rdf:RDF><cc:Work
         rdf:about=""><dc:format>image/svg+xml</dc:format><dc:type
           rdf:resource="http://purl.org/dc/dcmitype/StillImage" /></cc:Work></rdf:RDF></metadata><defs
     id="defs6" /><g
     transform="matrix(1.25,0,0,-1.25,0,136.25)"
     id="g10"><g
       transform="scale(0.1,0.1)"
       id="g12"><path
         d="m 266.52,239.48 873.48,0 0,-236.65188 -873.48,0 0,236.65188 z m 571.011,537.606 c 23.539,0 41.258,-9.871 52.649,-29.867 5.316,-10.379 8.097,-20.754 8.097,-31.129 0,-9.367 -2.531,-19.242 -7.336,-29.617 -11.898,-20.754 -29.871,-31.129 -53.41,-31.129 -24.297,0 -41.761,9.617 -52.644,28.851 -6.075,9.367 -8.86,19.996 -8.86,31.895 0,11.894 2.532,22.269 8.102,31.129 10.883,19.996 28.601,29.867 53.402,29.867 z m -269.308,0 c 24.3,0 42.273,-9.871 54.168,-29.867 5.058,-9.364 7.339,-19.742 7.339,-31.129 0,-11.899 -2.281,-22.024 -7.339,-30.375 -11.895,-20.25 -29.868,-30.371 -54.168,-30.371 -24.551,0 -42.266,10.121 -52.645,30.371 -5.312,8.859 -8.101,18.98 -8.101,30.375 0,10.879 2.789,21.512 8.101,31.887 12.402,19.492 29.867,29.109 52.645,29.109 z m 414.593,-142.5 68.844,0 c 0,-96.941 -34.17,-179.707 -103.012,-248.301 -68.593,-68.844 -151.359,-103.269 -248.3,-103.269 -96.942,0 -179.707,34.425 -248.555,103.269 -68.594,68.594 -103.012,151.36 -103.012,248.301 l 69.098,0 c 0,-78.465 27.59,-145.031 83.019,-199.449 54.672,-54.926 121.239,-82.262 199.45,-82.262 77.957,0 144.527,27.336 199.449,82.262 55.433,55.429 83.019,121.742 83.019,199.449 z M 703.133,1089.93 c 136.679,0 252.855,-48.34 349.287,-145.285 96.94,-96.438 145.54,-213.118 145.54,-350.051 0,-86.055 -19.49,-164.016 -57.96,-233.617 l 260.19,0 -171.86,-126.809 171.86,-127.566 -245.26,0 0,149.082 -37.97,67.578 c -1.51,-2.532 -2.78,-4.809 -4.3,-7.09 -1.52,-2.274 -3.04,-4.297 -4.55,-6.324 l 29.61,-54.164 -57.71,0 0,19.234 c -0.51,-0.508 -6.33,-6.836 -17.21,-19.234 l -91.878,0 c 12.402,10.375 25.055,21.515 37.968,33.406 84.28,84.543 126.55,186.293 126.55,305.504 0,119.215 -42.27,220.965 -126.55,305.504 -85.05,85.043 -187.05,127.562 -305.757,127.562 -119.977,0 -221.977,-42.519 -306.012,-127.562 -84.535,-84.539 -126.805,-186.289 -126.805,-305.504 0,-119.211 42.27,-220.961 126.805,-305.504 11.645,-11.891 24.301,-23.031 37.715,-33.406 l -91.879,0 c -11.391,12.398 -17.211,18.726 -17.211,19.234 l 0,-19.234 -56.187,0 28.851,53.402 c -3.543,4.051 -6.832,8.605 -9.617,14.176 l -37.969,-67.578 0,-149.082 -245.2615,0 171.8635,127.566 -171.8635,126.809 260.1955,0 c -38.473,69.601 -57.957,147.562 -57.957,233.617 0,136.933 48.594,253.613 145.535,350.051 95.926,96.945 212.613,145.285 349.797,145.285 z m -283.988,-911.446 0,-114.9098 97.195,0 0,26.0703 -61.508,0 0,23.0315 55.684,0 0,23.539 -55.684,0 0,17.969 59.988,0 0,24.3 -95.675,0 z m 136.425,0 0,-114.9098 91.371,0 0,28.3438 -55.683,0 0,86.566 -35.688,0 z m 128.325,0 0,-114.9098 36.449,0 0,114.9098 -36.449,0 z m 73.402,0 0,-28.093 36.449,0 0,-86.8168 35.688,0 0,86.8168 36.191,0 0,28.093 -108.328,0 z m 144.019,0 0,-114.9098 96.942,0 0,26.0703 -61.508,0 0,23.0315 55.684,0 0,23.539 -55.684,0 0,17.969 60.242,0 0,24.3 -95.676,0"
         inkscape:connector-curvature="0"
         id="path14"
         style="fill:#007b5e;fill-opacity:1;fill-rule:nonzero;stroke:none" /></g></g></svg>